<svg width="275" height="80" viewBox="0 0 275 80" fill="none" xmlns="http://www.w3.org/2000/svg">
<path fill-rule="evenodd" clip-rule="evenodd" d="M40 80C62.0914 80 80 62.0914 80 40C80 17.9086 62.0914 0 40 0C17.9086 0 0 17.9086 0 40C0 62.0914 17.9086 80 40 80ZM40 68C55.464 68 68 55.464 68 40C68 24.536 55.464 12 40 12C24.536 12 12 24.536 12 40C12 55.464 24.536 68 40 68Z" fill="#222222"/>
<path d="M63.6691 17L72.8614 48.8198L48.4663 73.215L17 63.669L63.6691 17Z" fill="#222222"/>
<path d="M106.152 62L117.928 17.2H132.648L144.424 62H135.72L133.288 52.144H117.288L114.856 62H106.152ZM119.272 44.336H131.304L125.864 22.512H124.712L119.272 44.336ZM164.955 62.896C161.883 62.896 159.088 62.256 156.571 60.976C154.096 59.696 152.133 57.84 150.683 55.408C149.232 52.976 148.507 50.032 148.507 46.576V45.68C148.507 42.224 149.232 39.28 150.683 36.848C152.133 34.416 154.096 32.56 156.571 31.28C159.088 30 161.883 29.36 164.955 29.36C167.984 29.36 170.587 29.8933 172.763 30.96C174.939 32.0267 176.688 33.4987 178.011 35.376C179.376 37.2107 180.272 39.3013 180.699 41.648L172.891 43.312C172.72 42.032 172.336 40.88 171.739 39.856C171.141 38.832 170.288 38.0213 169.179 37.424C168.112 36.8267 166.768 36.528 165.147 36.528C163.525 36.528 162.053 36.8907 160.731 37.616C159.451 38.2987 158.427 39.344 157.659 40.752C156.933 42.1173 156.571 43.8027 156.571 45.808V46.448C156.571 48.4533 156.933 50.16 157.659 51.568C158.427 52.9333 159.451 53.9787 160.731 54.704C162.053 55.3867 163.525 55.728 165.147 55.728C167.579 55.728 169.413 55.1093 170.651 53.872C171.931 52.592 172.741 50.928 173.083 48.88L180.891 50.736C180.336 52.9973 179.376 55.0667 178.011 56.944C176.688 58.7787 174.939 60.2293 172.763 61.296C170.587 62.3627 167.984 62.896 164.955 62.896ZM187.543 62V30.256H195.479V33.712H196.631C197.185 32.6453 198.103 31.728 199.383 30.96C200.663 30.1493 202.348 29.744 204.439 29.744C206.7 29.744 208.513 30.192 209.879 31.088C211.244 31.9413 212.289 33.072 213.015 34.48H214.167C214.892 33.1147 215.916 31.984 217.239 31.088C218.561 30.192 220.439 29.744 222.871 29.744C224.833 29.744 226.604 30.1707 228.183 31.024C229.804 31.8347 231.084 33.0933 232.023 34.8C233.004 36.464 233.495 38.576 233.495 41.136V62H225.431V41.712C225.431 39.9627 224.983 38.6613 224.087 37.808C223.191 36.912 221.932 36.464 220.311 36.464C218.476 36.464 217.047 37.0613 216.023 38.256C215.041 39.408 214.551 41.072 214.551 43.248V62H206.487V41.712C206.487 39.9627 206.039 38.6613 205.143 37.808C204.247 36.912 202.988 36.464 201.367 36.464C199.532 36.464 198.103 37.0613 197.079 38.256C196.097 39.408 195.607 41.072 195.607 43.248V62H187.543ZM256.632 62.896C253.474 62.896 250.68 62.2347 248.248 60.912C245.858 59.5467 243.981 57.648 242.616 55.216C241.293 52.7413 240.632 49.84 240.632 46.512V45.744C240.632 42.416 241.293 39.536 242.616 37.104C243.938 34.6293 245.794 32.7307 248.184 31.408C250.573 30.0427 253.346 29.36 256.503 29.36C259.618 29.36 262.328 30.064 264.632 31.472C266.936 32.8373 268.728 34.7573 270.007 37.232C271.288 39.664 271.928 42.5013 271.928 45.744V48.496H248.824C248.909 50.672 249.72 52.4427 251.256 53.808C252.792 55.1733 254.669 55.856 256.888 55.856C259.149 55.856 260.813 55.3653 261.88 54.384C262.946 53.4027 263.757 52.3147 264.312 51.12L270.904 54.576C270.306 55.6853 269.432 56.9013 268.28 58.224C267.17 59.504 265.677 60.6133 263.8 61.552C261.922 62.448 259.533 62.896 256.632 62.896ZM248.888 42.48H263.736C263.565 40.6453 262.818 39.1733 261.496 38.064C260.216 36.9547 258.53 36.4 256.44 36.4C254.264 36.4 252.536 36.9547 251.256 38.064C249.976 39.1733 249.186 40.6453 248.888 42.48Z" fill="#111111"/>
</svg>
