<svg width="51" height="11" viewBox="0 0 51 11" fill="none" xmlns="http://www.w3.org/2000/svg">
<path d="M10.1299 8.04053L5.51074 7.89551L5.47852 6.53125L7.06299 6.4668L7.21338 4.46338L2.93799 4.71582L2.79297 6.30029L4.68359 6.31104L4.6084 8.00293L0 7.63232L0.0322266 6.26807L1.75635 6.28955L1.58447 1.69189L0 1.73486V0.0429688L4.65137 0.230957L4.61914 1.58984L3.2334 1.63818L3.04541 3.53955H7.29395L7.44434 1.70264L5.52148 1.8584L5.43018 0.150391L10.0869 0.107422L10.1299 1.47168L8.48096 1.6167V6.41309L10.1299 6.34326V8.04053Z" fill="#F5F5F5"/>
<path d="M18.9331 5.17773C18.9009 5.37467 18.849 5.58594 18.7773 5.81152C18.7093 6.03353 18.6144 6.25553 18.4927 6.47754C18.3709 6.69954 18.2223 6.9126 18.0469 7.1167C17.8714 7.31722 17.6619 7.49447 17.4185 7.64844C17.175 7.80241 16.8957 7.92594 16.5806 8.01904C16.2655 8.11214 15.9092 8.15869 15.5117 8.15869C14.9567 8.15869 14.459 8.07633 14.0186 7.91162C13.5817 7.75049 13.2111 7.52848 12.9067 7.24561C12.6024 6.95915 12.3696 6.62435 12.2085 6.24121C12.0474 5.85807 11.9668 5.4445 11.9668 5.00049C11.9668 4.90023 11.974 4.74984 11.9883 4.54932C12.0026 4.34521 12.0241 4.10173 12.0527 3.81885C12.0814 3.53597 12.1154 3.21908 12.1548 2.86816C12.1942 2.51367 12.2389 2.1359 12.2891 1.73486L10.7153 1.77783V0.0859375L15.3667 0.273926L15.3345 1.63818L13.9058 1.68115C13.7948 2.229 13.7088 2.68734 13.6479 3.05615C13.5907 3.42139 13.5477 3.7168 13.519 3.94238C13.4868 4.20736 13.4689 4.41862 13.4653 4.57617C13.4653 4.93066 13.5065 5.22607 13.5889 5.4624C13.6712 5.69515 13.7965 5.88135 13.9648 6.021C14.1367 6.15706 14.3498 6.25374 14.604 6.31104C14.8618 6.36833 15.1644 6.39697 15.5117 6.39697C15.7409 6.39697 15.9683 6.38802 16.1938 6.37012C16.4194 6.35221 16.6325 6.3182 16.833 6.26807C17.0371 6.21794 17.2215 6.14811 17.3862 6.05859C17.5545 5.96549 17.696 5.84554 17.8105 5.69873C17.9287 5.55192 18.0146 5.37467 18.0684 5.16699C18.1257 4.95573 18.1418 4.70687 18.1167 4.42041C18.1167 4.22347 18.1095 3.99072 18.0952 3.72217C18.0845 3.493 18.0648 3.2137 18.0361 2.88428C18.0111 2.55485 17.9753 2.17887 17.9287 1.75635L16.2368 1.90137L16.1509 0.204102L20.8022 0.161133L20.8452 1.51465L18.9653 1.67041C18.9868 2.01774 19.0011 2.33643 19.0083 2.62646C19.0155 2.9165 19.019 3.17969 19.019 3.41602C19.019 3.72754 19.0137 3.9943 19.0029 4.21631C18.9958 4.43473 18.9868 4.61556 18.9761 4.75879C18.9618 4.92708 18.9474 5.06673 18.9331 5.17773Z" fill="#F5F5F5"/>
<path d="M27.6772 10.3179L23.7939 10.248V9.43701L24.793 9.37793L25.1797 3.37305L23.7939 3.26562V2.52979L26.7427 2.21826L26.7319 2.9917C26.8286 2.90576 26.9396 2.8234 27.0649 2.74463C27.1903 2.66585 27.3281 2.59603 27.4785 2.53516C27.6289 2.4707 27.7936 2.42057 27.9727 2.38477C28.1517 2.34896 28.3451 2.33105 28.5527 2.33105C28.7031 2.33105 28.8714 2.34896 29.0576 2.38477C29.2438 2.41699 29.43 2.47428 29.6162 2.55664C29.806 2.63542 29.9886 2.74284 30.1641 2.87891C30.3431 3.01497 30.5007 3.18506 30.6367 3.38916C30.7764 3.59326 30.8874 3.83496 30.9697 4.11426C31.0557 4.39355 31.0986 4.7194 31.0986 5.0918C31.0986 5.47135 31.0557 5.80615 30.9697 6.09619C30.8874 6.38265 30.7746 6.63151 30.6313 6.84277C30.4881 7.05046 30.3216 7.22412 30.1318 7.36377C29.9421 7.50342 29.738 7.61621 29.5195 7.70215C29.3047 7.78451 29.0827 7.84359 28.8535 7.87939C28.6243 7.91162 28.4006 7.92773 28.1821 7.92773C28.0067 7.92773 27.8294 7.91162 27.6504 7.87939C27.4964 7.85433 27.3299 7.81494 27.1509 7.76123C26.9754 7.70394 26.8125 7.62337 26.6621 7.51953L26.6406 9.28125L27.7954 9.2168L27.6772 10.3179ZM27.9189 7.13818C28.1374 7.13818 28.3289 7.07552 28.4937 6.9502C28.6584 6.82487 28.7944 6.66374 28.9019 6.4668C29.0093 6.26986 29.0898 6.05501 29.1436 5.82227C29.1973 5.58594 29.2241 5.35677 29.2241 5.13477C29.2241 4.91276 29.1991 4.6818 29.1489 4.44189C29.1024 4.1984 29.0254 3.9764 28.918 3.77588C28.8141 3.57536 28.6781 3.41064 28.5098 3.28174C28.3415 3.15283 28.1374 3.08838 27.8975 3.08838C27.7686 3.09554 27.6361 3.12956 27.5 3.19043C27.3854 3.24056 27.2565 3.32292 27.1133 3.4375C26.9736 3.5485 26.8376 3.70785 26.7051 3.91553L26.6729 6.58496C26.8232 6.72461 26.9718 6.83203 27.1187 6.90723C27.269 6.97884 27.4033 7.03255 27.5215 7.06836C27.6611 7.10775 27.7936 7.13102 27.9189 7.13818Z" fill="#F5F5F5"/>
<path d="M34.5361 8.22314C34.0384 8.22314 33.6087 8.14795 33.2471 7.99756C32.889 7.84717 32.5936 7.64307 32.3608 7.38525C32.1317 7.12744 31.9616 6.82666 31.8506 6.48291C31.7396 6.13916 31.6841 5.77393 31.6841 5.38721C31.6841 4.868 31.7736 4.41325 31.9526 4.02295C32.1353 3.63265 32.3805 3.30859 32.6885 3.05078C33 2.78939 33.3599 2.59424 33.7681 2.46533C34.1763 2.33643 34.6077 2.27197 35.0625 2.27197C35.571 2.27197 35.9989 2.34717 36.3462 2.49756C36.6971 2.64795 36.98 2.85026 37.1948 3.10449C37.4097 3.35514 37.5636 3.64518 37.6567 3.97461C37.7534 4.30046 37.8018 4.64242 37.8018 5.00049C37.8018 5.48747 37.723 5.92969 37.5654 6.32715C37.4115 6.72461 37.1912 7.06478 36.9048 7.34766C36.6219 7.62695 36.2782 7.8418 35.8735 7.99219C35.4725 8.14616 35.0267 8.22314 34.5361 8.22314ZM34.7671 3.00244C34.5773 3.00244 34.4108 3.04362 34.2676 3.12598C34.1279 3.20475 34.0062 3.31038 33.9023 3.44287C33.8021 3.57178 33.7179 3.71859 33.6499 3.8833C33.5819 4.04801 33.5282 4.21631 33.4888 4.38818C33.4494 4.55648 33.4207 4.72119 33.4028 4.88232C33.3885 5.04346 33.3813 5.18311 33.3813 5.30127C33.3813 5.43018 33.3903 5.5752 33.4082 5.73633C33.4261 5.89388 33.4565 6.05322 33.4995 6.21436C33.5425 6.37549 33.5998 6.53304 33.6714 6.68701C33.743 6.84098 33.8325 6.97705 33.9399 7.09521C34.0474 7.21338 34.1727 7.30827 34.3159 7.37988C34.4627 7.4515 34.631 7.4873 34.8208 7.4873C35.0142 7.4873 35.1789 7.4515 35.3149 7.37988C35.4546 7.30827 35.571 7.21338 35.6641 7.09521C35.7607 6.97705 35.8377 6.84277 35.895 6.69238C35.9523 6.54199 35.9953 6.38981 36.0239 6.23584C36.0562 6.07829 36.0776 5.92611 36.0884 5.7793C36.0991 5.63249 36.1045 5.50179 36.1045 5.38721C36.1045 5.23324 36.0955 5.06673 36.0776 4.8877C36.0633 4.70866 36.0365 4.53141 35.9971 4.35596C35.9613 4.17692 35.9093 4.00684 35.8413 3.8457C35.7769 3.68099 35.6945 3.53776 35.5942 3.41602C35.4976 3.29069 35.3794 3.19043 35.2397 3.11523C35.1037 3.04004 34.9461 3.00244 34.7671 3.00244Z" fill="#F5F5F5"/>
<path d="M44.3438 2.39551L43.812 4.22168C43.6366 4.12858 43.4414 4.03727 43.2266 3.94775C43.0117 3.85824 42.7897 3.77946 42.5605 3.71143C42.335 3.64339 42.1076 3.58968 41.8784 3.55029C41.6528 3.50732 41.4398 3.48584 41.2393 3.48584C40.96 3.48584 40.7326 3.52881 40.5571 3.61475C40.3817 3.6971 40.2939 3.81885 40.2939 3.97998C40.2939 4.08382 40.3333 4.17334 40.4121 4.24854C40.4909 4.32015 40.609 4.38818 40.7666 4.45264C40.9277 4.51709 41.1283 4.57975 41.3682 4.64062C41.6117 4.7015 41.8945 4.77132 42.2168 4.8501C42.5068 4.91813 42.779 4.99512 43.0332 5.08105C43.2874 5.16341 43.5076 5.26904 43.6938 5.39795C43.88 5.52686 44.0269 5.68441 44.1343 5.87061C44.2417 6.0568 44.2954 6.28418 44.2954 6.55273C44.2954 6.83919 44.2345 7.08089 44.1128 7.27783C43.9946 7.47477 43.8281 7.6359 43.6133 7.76123C43.3984 7.88298 43.1442 7.9707 42.8506 8.02441C42.5605 8.07812 42.2437 8.10498 41.8999 8.10498C41.481 8.10498 41.1211 8.07275 40.8203 8.0083C40.5231 7.94385 40.276 7.87402 40.0791 7.79883C39.8857 7.72005 39.7371 7.64844 39.6333 7.58398C39.533 7.51953 39.4704 7.4873 39.4453 7.4873L39.3379 8.35742L38.2046 7.9707L38.8169 6.2251C38.9279 6.29671 39.0622 6.37191 39.2197 6.45068C39.3773 6.52946 39.5456 6.60824 39.7246 6.68701C39.9036 6.76579 40.0898 6.84277 40.2832 6.91797C40.4801 6.98958 40.6735 7.05404 40.8633 7.11133C41.0531 7.16504 41.2339 7.20801 41.4058 7.24023C41.5776 7.27246 41.7316 7.28857 41.8677 7.28857C41.9321 7.28857 42.0037 7.2832 42.0825 7.27246C42.1613 7.26172 42.2347 7.24202 42.3027 7.21338C42.3743 7.18115 42.4334 7.13818 42.48 7.08447C42.5265 7.02718 42.5498 6.95199 42.5498 6.85889C42.5498 6.7443 42.5086 6.64583 42.4263 6.56348C42.3439 6.47754 42.2437 6.40413 42.1255 6.34326C42.0073 6.28239 41.8802 6.23226 41.7441 6.19287C41.6117 6.1499 41.4917 6.1123 41.3843 6.08008C41.2124 6.03353 41.0226 5.97982 40.8149 5.91895C40.6073 5.85449 40.396 5.78109 40.1812 5.69873C39.9663 5.61279 39.7586 5.51611 39.5581 5.40869C39.3576 5.30127 39.1785 5.17773 39.021 5.03809C38.8634 4.89844 38.7363 4.74268 38.6396 4.5708C38.5465 4.39893 38.5 4.20557 38.5 3.99072C38.5 3.7723 38.5519 3.56641 38.6558 3.37305C38.7596 3.17611 38.91 3.00423 39.1069 2.85742C39.3075 2.71061 39.5527 2.59424 39.8428 2.5083C40.1364 2.41878 40.4694 2.37402 40.8418 2.37402C41.1927 2.37402 41.5132 2.40804 41.8032 2.47607C42.0968 2.54411 42.3511 2.6193 42.5659 2.70166C42.8166 2.79476 43.0422 2.90218 43.2427 3.02393L43.2212 2.17529L44.3438 2.39551Z" fill="#F5F5F5"/>
<path d="M47.3086 5.82764C47.3086 6.021 47.3354 6.18929 47.3892 6.33252C47.4465 6.47575 47.5234 6.5957 47.6201 6.69238C47.7168 6.78548 47.8296 6.85531 47.9585 6.90186C48.091 6.9484 48.2324 6.97168 48.3828 6.97168C48.5332 6.97168 48.6908 6.9484 48.8555 6.90186C49.0202 6.85531 49.1831 6.78548 49.3442 6.69238C49.5054 6.59928 49.6629 6.48291 49.8169 6.34326C49.9709 6.20361 50.1141 6.04248 50.2466 5.85986C50.2824 5.98877 50.32 6.13021 50.3594 6.28418C50.3952 6.41667 50.4346 6.57064 50.4775 6.74609C50.5241 6.91797 50.5742 7.10238 50.6279 7.29932C50.4131 7.46045 50.2018 7.59294 49.9941 7.69678C49.7865 7.80062 49.5841 7.88298 49.3872 7.94385C49.1938 8.00472 49.0076 8.0459 48.8286 8.06738C48.6496 8.09245 48.4831 8.10498 48.3291 8.10498C47.9281 8.10498 47.5879 8.05127 47.3086 7.94385C47.0329 7.84001 46.8019 7.69678 46.6157 7.51416C46.4331 7.32796 46.2899 7.11133 46.186 6.86426C46.0858 6.61361 46.0106 6.34505 45.9604 6.05859C45.9103 5.76855 45.8799 5.46777 45.8691 5.15625C45.8584 4.84115 45.853 4.52962 45.853 4.22168C45.853 4.1429 45.8548 4.05339 45.8584 3.95312C45.862 3.85286 45.8674 3.74723 45.8745 3.63623L44.5908 3.67383L44.6982 2.55127L45.998 2.44922C46.0339 2.14486 46.0715 1.84766 46.1108 1.55762C46.1538 1.26758 46.1914 1.00618 46.2236 0.773438C46.263 0.501302 46.3006 0.24349 46.3364 0L48.0767 0.128906C48.0337 0.322266 47.9907 0.533529 47.9478 0.762695C47.9084 0.959635 47.8636 1.19059 47.8135 1.45557C47.7669 1.71696 47.7186 2.00163 47.6685 2.30957L49.9995 2.12158L49.9673 3.50732L47.4805 3.58252C47.4268 3.98356 47.3838 4.37565 47.3516 4.75879C47.3229 5.13835 47.3086 5.49463 47.3086 5.82764Z" fill="#F5F5F5"/>
</svg>
