<svg width="57" height="56" viewBox="0 0 57 56" fill="none" xmlns="http://www.w3.org/2000/svg">
<path d="M17.8626 0.471551C19.1135 1.72318 18.98 3.34041 19.0193 5.03463C19.0264 5.32011 19.0335 5.6056 19.0409 5.89974C19.0534 6.49078 19.0601 7.08198 19.061 7.67315C19.07 7.95769 19.0791 8.24222 19.0883 8.53538C19.0935 8.91953 19.0935 8.91953 19.0988 9.31143C19.4865 10.5239 20.0917 10.888 21.1773 11.5266C22.2915 11.74 23.383 11.742 24.515 11.7353C24.9951 11.7387 24.9951 11.7387 25.4848 11.7422C26.1596 11.7448 26.8345 11.7437 27.5093 11.739C28.5402 11.7339 29.5698 11.7464 30.6006 11.7605C31.2576 11.7608 31.9146 11.7601 32.5716 11.7583C33.0321 11.7657 33.0321 11.7657 33.5018 11.7731C35.06 11.7482 35.7321 11.6563 37.0257 10.7097C37.8108 9.59931 37.9744 9.12054 37.9595 7.78255C37.9635 7.42937 37.9675 7.07619 37.9717 6.71231C37.9672 6.34773 37.9627 5.98316 37.958 5.60753C37.9267 1.88983 37.9267 1.88983 38.7277 0.588147C39.8788 -0.0576606 40.4948 -0.0888816 41.8022 0.10305C47.5636 2.63668 52.4378 6.94502 55.6134 12.3557C55.8073 12.6822 55.8073 12.6822 56.005 13.0152C56.7118 14.276 57.2223 15.2456 56.9025 16.6856C56.2594 17.7105 56.2594 17.7105 55.061 18.5281C53.5797 18.7598 52.1148 18.7355 50.6184 18.7123C49.8238 18.7001 49.0291 18.6959 48.2345 18.7008C47.8836 18.6949 47.5327 18.6889 47.1712 18.6828C46.1618 18.8317 46.1618 18.8317 45.3708 19.6314C44.5414 21.1078 44.5422 22.2516 44.5659 23.9174C44.565 24.3732 44.565 24.3732 44.5642 24.8381C44.5648 25.4786 44.5691 26.1191 44.5767 26.7596C44.5874 27.7375 44.5843 28.7146 44.5795 29.6925C44.5818 30.3163 44.5849 30.94 44.5889 31.5638C44.5878 31.8548 44.5867 32.1458 44.5856 32.4456C44.6172 34.2984 44.8859 35.6165 46.2218 36.9531C46.8289 36.9933 47.4376 37.0105 48.046 37.0179C48.4187 37.0267 48.7914 37.0355 49.1754 37.0445C49.9627 37.0602 50.7502 37.0718 51.5377 37.0791C54.4081 37.1573 54.4081 37.1573 55.8695 38.001C56.5342 38.7956 56.5342 38.7956 56.7644 39.9702C56.2432 43.1512 54.1025 45.5698 52.1146 48.0081C51.8914 48.3069 51.6683 48.6057 51.4384 48.9136C50.5291 49.9826 49.5218 50.8276 48.4086 51.6701C48.1992 51.8292 47.9898 51.9883 47.774 52.1522C42.4293 56.1322 42.4293 56.1322 39.5924 55.7467C38.7306 55.263 38.7306 55.263 38.1191 54.2727C37.9151 52.9225 37.9129 51.5828 37.912 50.2191C37.9087 49.4898 37.9007 48.7604 37.8875 48.0312C37.8873 47.7086 37.887 47.3861 37.8867 47.0538C37.7216 45.9742 37.3946 45.4775 36.6459 44.6916C35.2155 44.2146 33.8476 44.2487 32.3558 44.2353C31.8865 44.2309 31.8865 44.2309 31.4077 44.2263C30.7458 44.2212 30.0839 44.2173 29.422 44.2144C28.4115 44.208 27.4014 44.1918 26.3911 44.1756C25.7475 44.1719 25.1039 44.1687 24.4604 44.1662C24.1591 44.1598 23.8579 44.1533 23.5476 44.1467C22.1147 44.1521 21.3354 44.2335 20.0644 44.9542C19.2077 45.9454 19.1127 46.3569 19.1272 47.6497C19.1211 48.1788 19.1211 48.1788 19.115 48.7185C19.1195 49.0845 19.124 49.4505 19.1286 49.8276C19.1603 53.5733 19.1603 53.5733 18.2913 55.0644C17.4943 55.7467 17.4943 55.7467 16.3664 56C12.7773 55.373 9.8608 52.9363 7.18187 50.5876C6.92835 50.3691 6.67482 50.1506 6.41362 49.9255C3.84895 47.5522 0.7146 43.594 0 40.1084C0.227707 38.9408 0.735416 38.4436 1.65196 37.7118C3.15022 36.9239 4.83645 37.0937 6.4913 37.1143C7.21349 37.1205 7.93577 37.1202 8.65795 37.1129C8.97563 37.1169 9.2933 37.1209 9.6206 37.125C10.8739 36.8791 11.2529 36.5413 11.9698 35.4791C12.1854 34.3461 12.1762 33.2326 12.1654 32.082C12.1669 31.7522 12.1683 31.4225 12.1697 31.0827C12.1707 30.3864 12.168 29.6901 12.1618 28.9938C12.154 27.9285 12.1618 26.8641 12.1712 25.7988C12.1702 25.1218 12.1683 24.4447 12.1654 23.7677C12.1684 23.4495 12.1714 23.1312 12.1745 22.8033C12.1527 21.4077 12.1302 20.6106 11.3417 19.4313C10.3283 18.7901 9.75748 18.7226 8.56444 18.7368C8.19531 18.7332 7.82618 18.7297 7.44587 18.726C6.6728 18.7322 5.89975 18.7399 5.12672 18.749C2.30922 18.7183 2.30922 18.7183 0.838748 17.7321C0.0478835 16.4677 -0.079008 15.9402 0.18415 14.4746C0.634753 13.575 1.0733 12.81 1.63434 11.9872C1.78442 11.7619 1.9345 11.5367 2.08914 11.3046C5.01808 7.00355 11.8871 -1.60801 17.8626 0.471551Z" fill="#F5F5F5"/>
</svg>